HIERARCHY
ROOT joint_Root
{
	OFFSET 0.0 0.0 0.0
	CHANNELS 6 Xposition Yposition Zposition Zrotation Xrotation Yrotation 
	JOINT Hips
	{
		OFFSET 4.5925 91.4895 -427.239
		CHANNELS 6 Xposition Yposition Zposition Zrotation Xrotation Yrotation 
		JOINT Spine
		{
			OFFSET 15.7357 0.0 0.0
			CHANNELS 6 Xposition Yposition Zposition Zrotation Xrotation Yrotation 
			JOINT Chest
			{
				OFFSET 8.98455 -0.406207 0.0
				CHANNELS 6 Xposition Yposition Zposition Zrotation Xrotation Yrotation 
				JOINT Neck
				{
					OFFSET 16.3773 0.0 0.0
					CHANNELS 6 Xposition Yposition Zposition Zrotation Xrotation Yrotation 
					JOINT Head
					{
						OFFSET 6.45672 0.0 0.0
						CHANNELS 6 Xposition Yposition Zposition Zrotation Xrotation Yrotation 
						End Site
						{
							OFFSET 0.0 0.0 0.0
						}
					}
				}
				JOINT Shoulder_L
				{
					OFFSET 12.9942 -0.242716 4.98039
					CHANNELS 6 Xposition Yposition Zposition Zrotation Xrotation Yrotation 
					JOINT UpperArm_L
					{
						OFFSET 5.34809 0.0 0.0
						CHANNELS 6 Xposition Yposition Zposition Zrotation Xrotation Yrotation 
						JOINT LowerArm_L
						{
							OFFSET 24.3286 1.87007e-05 0.0
							CHANNELS 6 Xposition Yposition Zposition Zrotation Xrotation Yrotation 
							JOINT Hand_L
							{
								OFFSET 22.2916 0.0 0.0
								CHANNELS 6 Xposition Yposition Zposition Zrotation Xrotation Yrotation 
								End Site
								{
									OFFSET 0.0 0.0 0.0
								}
							}
						}
					}
				}
				JOINT Shoulder_R
				{
					OFFSET 12.9945 -0.242716 -4.98039
					CHANNELS 6 Xposition Yposition Zposition Zrotation Xrotation Yrotation 
					JOINT UpperArm_R
					{
						OFFSET -5.34813 0.0 0.0
						CHANNELS 6 Xposition Yposition Zposition Zrotation Xrotation Yrotation 
						JOINT LowerArm_R
						{
							OFFSET -24.3289 0.000322201 0.0
							CHANNELS 6 Xposition Yposition Zposition Zrotation Xrotation Yrotation 
							JOINT Hand_R
							{
								OFFSET -22.2915 -0.000108084 0.0
								CHANNELS 6 Xposition Yposition Zposition Zrotation Xrotation Yrotation 
								End Site
								{
									OFFSET 0.0 0.0 0.0
								}
							}
						}
					}
				}
			}
		}
		JOINT UpperLeg_L
		{
			OFFSET -2.19248 -6.46944 0.0
			CHANNELS 6 Xposition Yposition Zposition Zrotation Xrotation Yrotation 
			JOINT LowerLeg_L
			{
				OFFSET 39.0811 0.0 -1.23785e-05
				CHANNELS 6 Xposition Yposition Zposition Zrotation Xrotation Yrotation 
				JOINT Foot_L
				{
					OFFSET 40.9854 0.0 -1.26872e-05
					CHANNELS 6 Xposition Yposition Zposition Zrotation Xrotation Yrotation 
					JOINT Toes_L
					{
						OFFSET 11.7543 0.0 0.0
						CHANNELS 6 Xposition Yposition Zposition Zrotation Xrotation Yrotation 
						End Site
						{
							OFFSET 0.0 0.0 0.0
						}
					}
				}
			}
		}
		JOINT UpperLeg_R
		{
			OFFSET -2.19251 6.46944 0.0
			CHANNELS 6 Xposition Yposition Zposition Zrotation Xrotation Yrotation 
			JOINT LowerLeg_R
			{
				OFFSET -39.0811 -0.00228153 -0.0401928
				CHANNELS 6 Xposition Yposition Zposition Zrotation Xrotation Yrotation 
				JOINT Foot_R
				{
					OFFSET -40.9854 0.0 0.0
					CHANNELS 6 Xposition Yposition Zposition Zrotation Xrotation Yrotation 
					JOINT Toes_R
					{
						OFFSET -11.7543 0.0 0.0
						CHANNELS 6 Xposition Yposition Zposition Zrotation Xrotation Yrotation 
						End Site
						{
							OFFSET 0.0 0.0 0.0
						}
					}
				}
			}
		}
	}
}
MOTION
Frames:	7
Frame Time:	0.0333333
0.000000 0.000000 0.000000 0.000000 0.000000 -0.000000 133.897000 90.919700 -56.207700 89.450100 -9.418270 0.780699 15.735700 0.000005 -0.000001 101.624000 84.076700 -101.561000 8.984550 -0.406207 -0.000000 3.839110 2.381480 0.044624 16.377300 -0.000001 -0.000001 -1.026800 -1.751100 1.070240 6.456720 -0.000001 -0.000000 -6.794660 -2.320110 1.334730 12.994200 -0.242716 4.980390 -90.751200 2.342540 -72.215600 5.348090 -0.000007 -0.000001 -77.358300 23.877300 7.136540 24.328600 0.000019 0.000005 1.695680 27.827000 -3.628680 22.291600 -0.000001 0.000005 5.265240 5.115740 4.750730 12.994500 -0.242716 -4.980390 88.845400 9.002730 -82.661000 -5.348130 -0.000001 -0.000004 -53.742000 33.366700 -27.635100 -24.328900 0.000322 -0.000009 0.434828 0.622456 -35.009300 -22.291500 -0.000108 -0.000004 17.663400 5.439250 -4.259140 -2.192480 -6.469440 -0.000000 -177.728000 -11.626200 -23.075700 39.081100 -0.000007 -0.000012 0.010491 -0.020031 27.642400 40.985400 -0.000006 -0.000013 -1.372090 2.795790 -61.984200 11.754300 -0.000000 0.000003 -0.004312 -0.054651 -18.800000 -2.192510 6.469440 -0.000001 174.507000 14.597500 -176.257000 -39.081100 -0.002282 -0.040193 0.023007 -0.035091 29.314300 -40.985400 0.000008 0.000006 10.580300 16.017900 -70.347700 -11.754300 -0.000006 -0.000006 -0.038342 -0.253432 -26.978900
0.000000 0.000000 0.000000 0.000000 0.000000 -0.000000 134.036000 90.223400 -53.308400 89.342400 -9.814690 0.830509 15.735700 0.000005 -0.000001 101.328000 83.952800 -101.328000 8.984550 -0.406207 -0.000000 4.095630 2.372020 -0.085874 16.377300 -0.000001 -0.000001 -0.933624 -1.940640 0.756282 6.456720 -0.000001 -0.000000 -7.269190 -2.343310 -0.588433 12.994200 -0.242716 4.980390 -90.842600 2.634120 -72.255600 5.348090 -0.000007 -0.000001 -76.905700 23.537800 8.576950 24.328600 0.000019 0.000005 1.921380 27.032400 -4.221310 22.291600 -0.000001 0.000005 5.655240 5.126700 4.495420 12.994500 -0.242716 -4.980390 88.867100 8.907560 -82.721900 -5.348130 -0.000001 -0.000004 -52.059900 32.743500 -29.770300 -24.328900 0.000322 -0.000009 0.273134 0.341922 -38.746400 -22.291500 -0.000108 -0.000004 18.144600 5.449020 -4.604260 -2.192480 -6.469440 -0.000000 -178.935000 -13.213600 -25.863900 39.081100 -0.000007 -0.000012 0.079422 -0.147134 28.359800 40.985400 -0.000006 -0.000013 0.507711 4.032590 -60.150900 11.754300 -0.000000 0.000003 -0.004099 -0.052475 -18.711400 -2.192510 6.469440 -0.000001 173.417000 14.654400 -174.378000 -39.081100 -0.002282 -0.040193 0.017839 -0.025380 29.801900 -40.985400 0.000008 0.000006 10.709300 16.571200 -71.328900 -11.754300 -0.000006 -0.000006 -0.045685 -0.282022 -28.175600
0.000000 0.000000 0.000000 0.000000 0.000000 -0.000000 134.384000 89.392100 -50.042000 89.638900 -10.126600 0.491138 15.735700 0.000005 -0.000001 101.312000 84.077900 -101.475000 8.984550 -0.406207 -0.000000 3.854000 2.325500 -0.404091 16.377300 -0.000001 -0.000001 -0.658574 -2.208270 0.502602 6.456720 -0.000001 -0.000000 -7.536460 -2.363990 -2.680890 12.994200 -0.242716 4.980390 -91.091200 3.413270 -72.259400 5.348090 -0.000007 -0.000001 -75.970800 24.396800 9.076460 24.328600 0.000019 0.000005 2.040140 27.522600 -4.407980 22.291600 -0.000001 0.000005 6.284840 5.133820 4.327480 12.994500 -0.242716 -4.980390 88.846200 9.015590 -82.676200 -5.348130 -0.000001 -0.000004 -50.585200 32.197200 -31.172300 -24.328900 0.000322 -0.000009 -0.059471 -0.066228 -41.358100 -22.291500 -0.000108 -0.000004 18.751600 5.460110 -5.004360 -2.192480 -6.469440 -0.000000 179.968000 -13.661100 -28.132500 39.081100 -0.000007 -0.000012 0.034779 -0.055971 31.854900 40.985400 -0.000006 -0.000013 1.483600 3.672300 -57.067900 11.754300 -0.000000 0.000003 -0.003887 -0.050262 -18.621300 -2.192510 6.469440 -0.000001 172.243000 13.457200 -173.303000 -39.081100 -0.002282 -0.040193 0.016611 -0.022081 31.083200 -40.985400 0.000008 0.000006 10.381600 16.146600 -72.089400 -11.754300 -0.000006 -0.000006 -0.058239 -0.326008 -30.030100
0.000000 0.000000 0.000000 0.000000 0.000000 -0.000000 134.787000 88.463900 -46.239000 89.876000 -10.795200 0.294012 15.735700 0.000005 -0.000001 102.717000 84.286500 -103.034000 8.984550 -0.406207 -0.000000 3.390530 2.524700 -0.707390 16.377300 -0.000001 -0.000001 -0.306673 -2.369890 0.253667 6.456720 -0.000001 -0.000000 -7.242950 -2.387230 -4.534270 12.994200 -0.242716 4.980390 -91.317900 4.070340 -72.041900 5.348090 -0.000007 -0.000001 -74.932800 25.378900 8.654460 24.328600 0.000019 0.000005 2.031250 28.321400 -4.275310 22.291600 -0.000001 0.000005 6.376770 5.129870 4.420470 12.994500 -0.242716 -4.980390 88.827300 9.091090 -82.618100 -5.348130 -0.000001 -0.000004 -50.121200 31.842600 -31.291900 -24.328900 0.000322 -0.000009 -0.250644 -0.270453 -42.691800 -22.291500 -0.000108 -0.000004 19.346000 5.471880 -5.440580 -2.192480 -6.469440 -0.000000 -179.910000 -11.991400 -29.241200 39.081100 -0.000007 -0.000012 -0.081050 0.103016 38.195300 40.985400 -0.000006 -0.000013 1.277760 2.067210 -59.092400 11.754300 -0.000000 0.000003 -0.000776 -0.012178 -17.072200 -2.192510 6.469440 -0.000001 171.436000 10.831000 -172.521000 -39.081100 -0.002282 -0.040193 0.025809 -0.034333 33.254900 -40.985400 0.000008 0.000006 9.743160 14.880800 -71.745100 -11.754300 -0.000006 -0.000006 -0.085434 -0.406878 -33.489500
0.000000 0.000000 0.000000 0.000000 0.000000 -0.000000 135.201000 87.761300 -42.021600 90.266400 -11.360500 0.764496 15.735700 0.000005 -0.000001 103.759000 84.338300 -104.323000 8.984550 -0.406207 -0.000000 3.249170 2.712450 -1.202170 16.377300 -0.000001 -0.000001 -0.111615 -2.317820 -0.002420 6.456720 -0.000001 -0.000000 -6.905040 -2.390740 -5.946020 12.994200 -0.242716 4.980390 -91.518100 4.621660 -71.793600 5.348090 -0.000007 -0.000001 -73.535500 26.040400 7.059080 24.328600 0.000019 0.000005 1.925910 28.647600 -4.011970 22.291600 -0.000001 0.000005 6.431130 5.127280 4.481390 12.994500 -0.242716 -4.980390 88.799900 9.408520 -82.697100 -5.348130 -0.000001 -0.000004 -51.133300 31.216600 -29.635500 -24.328900 0.000322 -0.000009 -0.124162 -0.132238 -42.925100 -22.291500 -0.000108 -0.000004 19.833800 5.475720 -5.585530 -2.192480 -6.469440 -0.000000 179.916000 -9.974080 -28.384500 39.081100 -0.000007 -0.000012 -0.213456 0.225650 43.409900 40.985400 -0.000006 -0.000013 0.771669 -0.453193 -64.693400 11.754300 -0.000000 0.000003 -0.000070 -0.000755 -16.606700 -2.192510 6.469440 -0.000001 170.777000 7.809670 -171.875000 -39.081100 -0.002282 -0.040193 0.053829 -0.068089 36.586000 -40.985400 0.000008 0.000006 9.590740 13.168400 -69.015100 -11.754300 -0.000006 -0.000006 -0.144755 -0.544276 -39.559700
0.000000 0.000000 0.000000 0.000000 0.000000 -0.000000 135.527000 87.406200 -37.724100 90.352400 -11.598100 1.701570 15.735700 0.000005 -0.000001 104.758000 84.241200 -105.428000 8.984550 -0.406207 -0.000000 3.393170 2.956170 -1.426470 16.377300 -0.000001 -0.000001 0.321674 -2.274080 -0.319700 6.456720 -0.000001 -0.000000 -6.941500 -2.352700 -7.373800 12.994200 -0.242716 4.980390 -91.613100 4.896850 -71.741800 5.348090 -0.000007 -0.000001 -72.121700 26.841000 4.210790 24.328600 0.000019 0.000005 1.893030 28.196800 -4.001270 22.291600 -0.000001 0.000005 6.245410 5.129370 4.432260 12.994500 -0.242716 -4.980390 88.825600 9.341510 -82.801800 -5.348130 -0.000001 -0.000004 -54.169000 29.995100 -26.324100 -24.328900 0.000322 -0.000009 0.180337 0.204802 -41.535500 -22.291500 -0.000108 -0.000004 20.202100 5.480180 -5.755390 -2.192480 -6.469440 -0.000000 179.728000 -9.384600 -25.627900 39.081100 -0.000007 -0.000012 -0.317943 0.305206 46.171700 40.985400 -0.000006 -0.000013 0.755276 -1.409240 -69.311300 11.754300 -0.000000 0.000003 -0.000262 -0.002321 -16.664400 -2.192510 6.469440 -0.000001 170.380000 6.414680 -172.657000 -39.081100 -0.002282 -0.040193 0.106026 -0.112577 42.388100 -40.985400 0.000008 0.000006 10.442100 12.071100 -62.219300 -11.754300 -0.000006 -0.000006 -0.260305 -0.736982 -48.679300
0.000000 0.000000 0.000000 0.000000 0.000000 -0.000000 135.898000 87.357700 -33.653300 90.460900 -11.821800 2.636710 15.735700 0.000005 -0.000001 104.863000 84.177400 -105.579000 8.984550 -0.406207 -0.000000 3.512840 3.010010 -1.523890 16.377300 -0.000001 -0.000001 0.695667 -1.960430 -0.803243 6.456720 -0.000001 -0.000000 -6.735610 -2.052790 -8.819270 12.994200 -0.242716 4.980390 -91.691900 5.100480 -71.621500 5.348090 -0.000007 -0.000001 -70.677600 27.775300 0.857355 24.328600 0.000019 0.000005 2.412100 27.092200 -5.284490 22.291600 -0.000001 0.000005 6.399350 5.134320 4.316290 12.994500 -0.242716 -4.980390 88.868000 9.046540 -82.837200 -5.348130 -0.000001 -0.000004 -57.281000 29.284300 -23.416400 -24.328900 0.000322 -0.000009 -0.328475 -0.422253 -37.800200 -22.291500 -0.000108 -0.000004 20.401300 5.482310 -5.837040 -2.192480 -6.469440 -0.000000 179.397000 -10.712500 -21.916400 39.081100 -0.000007 -0.000012 -0.349353 0.328057 46.801400 40.985400 -0.000006 -0.000013 1.435710 -0.816870 -72.803600 11.754300 -0.000000 0.000003 -0.000435 -0.003547 -16.707900 -2.192510 6.469440 -0.000001 169.772000 5.647680 -176.040000 -39.081100 -0.002282 -0.040193 0.148596 -0.118676 50.769300 -40.985400 0.000008 0.000006 7.998290 11.393400 -52.516700 -11.754300 -0.000006 -0.000006 -0.218992 -0.675757 -45.684300
